<?xml version="1.0" standalone="no"?>
<!DOCTYPE svg PUBLIC "-//W3C//DTD SVG 20010904//EN"
 "http://www.w3.org/TR/2001/REC-SVG-20010904/DTD/svg10.dtd">
<svg version="1.0" xmlns="http://www.w3.org/2000/svg"
 width="355.000000pt" height="355.000000pt" viewBox="0 0 355.000000 355.000000"
 preserveAspectRatio="xMidYMid meet">
<metadata>
Created by potrace 1.11, written by Peter Selinger 2001-2013
</metadata>
<g transform="translate(0.000000,355.000000) scale(0.100000,-0.100000)"
fill="#000000" stroke="none">
<path d="M1647 2520 c-15 -16 -29 -41 -33 -55 -9 -35 -69 -92 -104 -100 -16
-3 -34 -12 -40 -20 -11 -13 -5 -12 75 8 25 7 63 33 90 62 37 40 55 47 78 27
16 -14 17 -11 17 46 0 61 0 62 -28 62 -19 0 -38 -10 -55 -30z"/>
<path d="M1650 2355 c0 -2 5 -16 12 -32 26 -62 17 -112 -27 -157 -16 -16 -16
-18 -1 -35 9 -10 13 -21 9 -24 -3 -4 -1 -7 5 -7 11 0 25 -46 27 -90 1 -36 -18
-79 -53 -114 l-31 -32 29 -59 c30 -63 47 -165 27 -165 -5 0 -8 -3 -4 -6 9 -10
-21 -63 -54 -95 -16 -16 -28 -29 -27 -29 3 0 62 12 173 36 25 5 61 12 100 19
17 3 41 18 55 33 30 32 71 112 64 124 -3 4 -1 8 4 8 12 0 7 48 -9 76 -22 41
-69 53 -226 56 -62 1 -113 6 -113 10 0 4 8 6 18 6 16 -1 114 18 192 37 8 2 20
4 27 4 13 1 77 101 69 108 -3 3 -1 14 5 24 15 28 1 63 -33 84 -24 14 -54 18
-134 19 -57 0 -104 4 -104 7 0 6 48 18 97 25 47 6 64 17 83 54 43 84 18 113
-100 116 -44 2 -80 1 -80 -1z"/>
<path d="M1331 2109 c-12 -12 -31 -40 -41 -63 -24 -56 -50 -81 -107 -102 -64
-23 -74 -33 -24 -24 23 4 41 6 41 3 0 -12 84 43 116 76 35 38 39 40 60 26 26
-17 30 -10 29 55 0 41 -3 45 -25 48 -15 2 -35 -6 -49 -19z"/>
<path d="M2000 2012 c0 -2 8 -17 17 -35 9 -18 15 -47 14 -66 -2 -40 -30 -93
-44 -84 -12 7 1 -49 12 -57 13 -8 24 -50 26 -100 3 -51 -14 -91 -53 -125 l-27
-23 65 14 c36 8 76 16 90 18 57 10 113 25 120 33 4 4 19 30 34 58 41 79 32
132 -28 154 -19 7 -115 14 -189 13 -44 0 -18 16 38 24 27 3 60 10 73 15 27 11
66 91 57 119 -6 20 -65 55 -65 39 0 -6 -5 -7 -11 -3 -11 7 -129 12 -129 6z"/>
<path d="M1330 1931 c0 -5 6 -16 13 -23 8 -7 12 -19 10 -25 -3 -7 1 -21 7 -32
8 -15 8 -21 0 -21 -6 0 -8 -4 -5 -10 3 -5 -1 -21 -10 -34 -9 -14 -14 -30 -10
-36 4 -6 3 -10 -2 -9 -29 5 -31 -3 -10 -38 23 -39 25 -47 30 -103 5 -43 -8
-76 -47 -117 -29 -32 -29 -32 -5 -27 13 3 38 7 54 9 38 6 185 41 189 46 2 2
15 25 30 51 50 86 44 137 -20 164 -18 8 -37 14 -41 13 -30 -5 -163 3 -163 9 0
4 30 13 66 19 71 12 88 26 111 90 11 30 10 35 -12 57 -20 20 -34 23 -104 25
-48 1 -81 -2 -81 -8z"/>
<path d="M2250 1890 c0 -5 4 -10 9 -10 5 0 14 -13 21 -30 7 -16 16 -30 21 -30
5 0 9 -9 9 -20 0 -11 4 -20 8 -20 7 0 30 -37 37 -60 1 -3 13 -30 27 -60 28
-61 42 -108 39 -127 -3 -18 16 -16 22 2 9 22 56 7 127 -42 25 -17 25 -17 10 2
-8 11 -19 25 -25 32 -5 7 -15 18 -20 25 -145 183 -278 348 -281 348 -2 0 -4
-4 -4 -10z"/>
<path d="M1094 1528 c-3 -4 -12 -8 -21 -8 -27 0 -82 -49 -104 -92 -26 -51 -35
-134 -20 -180 15 -46 64 -94 120 -120 25 -11 50 -21 56 -22 5 -1 16 -5 23 -10
7 -4 16 -5 19 -2 3 3 12 1 19 -5 8 -6 21 -9 29 -5 8 3 15 2 15 -2 0 -5 12 -9
28 -10 39 -3 102 -11 137 -17 61 -13 439 -15 480 -4 22 6 51 13 65 16 55 9 60
10 155 49 70 29 140 76 175 118 81 97 136 141 203 165 37 13 67 27 67 32 0 6
-7 6 -17 0 -10 -5 -31 -11 -48 -14 -16 -3 -59 -12 -94 -22 -35 -9 -67 -13 -70
-8 -22 30 -92 -13 -122 -75 -17 -33 -19 -48 -11 -70 9 -26 7 -30 -17 -40 -89
-38 -130 -53 -161 -58 -19 -3 -48 -8 -65 -11 -16 -3 -50 -6 -75 -7 -25 -1 -50
-5 -55 -7 -13 -7 -225 -4 -295 4 -77 9 -169 35 -204 56 -28 18 -30 18 -63 0
-48 -27 -51 -24 -16 14 73 77 91 177 32 177 -29 0 -96 -39 -114 -66 -17 -27
-2 -27 38 -2 19 13 27 14 35 5 7 -8 2 -22 -17 -44 -71 -85 -167 -54 -176 56
-6 65 12 110 56 143 60 45 107 42 157 -10 20 -21 22 -21 22 -4 0 23 -34 60
-68 73 -35 13 -92 18 -98 7z m1200 -166 c8 -13 -13 -79 -30 -97 -31 -31 -37
-17 -20 50 9 39 38 66 50 47z"/>
<path d="M1737 1524 c-15 -8 -27 -23 -27 -33 0 -11 -9 -40 -20 -65 -11 -26
-20 -50 -21 -54 0 -4 -8 -23 -16 -42 -14 -34 -18 -47 -28 -98 -8 -44 67 -46
103 -3 17 20 15 34 -3 27 -8 -3 -22 -9 -30 -12 -22 -9 -13 34 23 122 29 69 39
95 40 104 0 3 5 17 11 32 13 34 4 40 -32 22z"/>
<path d="M1985 1507 c-11 -7 -22 -21 -23 -32 -2 -11 -20 -60 -39 -108 -47
-119 -51 -152 -24 -167 18 -9 29 -7 61 11 22 13 40 29 40 36 0 16 -12 17 -27
2 -7 -7 -19 -9 -28 -5 -13 4 -14 10 -5 26 6 11 8 20 5 20 -3 0 3 17 14 38 10
20 19 39 19 42 1 6 15 44 36 94 9 21 16 42 16 47 0 12 -21 11 -45 -4z"/>
<path d="M1593 1487 c-12 -5 -26 -21 -31 -36 -6 -14 -13 -35 -18 -46 -4 -11
-8 -24 -9 -30 -2 -5 -12 -34 -24 -63 -24 -61 -27 -95 -7 -111 16 -14 50 -3 85
28 27 24 20 42 -9 23 -50 -31 -48 -9 11 134 39 96 39 118 2 101z"/>
<path d="M1824 1416 c-28 -16 -28 -36 1 -36 28 0 53 35 32 43 -7 3 -22 0 -33
-7z"/>
<path d="M1395 1364 c-70 -36 -124 -109 -105 -144 9 -16 14 -18 43 -8 17 6 40
17 49 25 15 13 17 12 20 -8 3 -22 32 -48 42 -38 3 2 6 21 8 42 1 20 6 37 11
37 4 0 6 4 3 9 -3 4 -1 23 4 42 8 28 7 36 -7 47 -22 16 -32 15 -68 -4z m30
-41 c-27 -43 -67 -83 -77 -77 -11 7 4 32 42 72 39 39 59 42 35 5z"/>
<path d="M2072 1351 c-49 -45 -70 -113 -44 -140 17 -17 87 -18 107 -1 23 19
18 31 -11 20 -32 -12 -34 -12 -34 0 0 6 11 22 25 35 25 25 42 85 30 104 -11
19 -40 12 -73 -18z m37 -52 c-11 -16 -25 -29 -31 -29 -6 0 -6 6 2 15 7 8 9 15
6 15 -4 0 -2 9 4 20 6 11 16 17 25 14 12 -5 12 -11 -6 -35z"/>
<path d="M1817 1359 c-16 -10 -36 -45 -43 -76 -1 -6 -6 -19 -12 -29 -7 -13 -6
-24 5 -41 l15 -22 39 19 c40 21 54 46 19 37 -27 -7 -30 11 -9 58 28 62 25 76
-14 54z"/>
</g>
</svg>
